<svg width="300" height="123" viewBox="0 0 300 123" fill="none" xmlns="http://www.w3.org/2000/svg">
<path d="M23.9961 60.7119C23.9961 29.2705 49.4844 3.78223 80.9258 3.78223C112.367 3.78223 137.855 29.2705 137.855 60.7119C137.855 92.1533 112.367 117.642 80.9258 117.642C49.4844 117.642 23.9961 92.1533 23.9961 60.7119Z" stroke="black" stroke-width="6"/>
<path d="M163.525 60.7119C163.525 29.2705 189.014 3.78223 220.455 3.78223C251.896 3.78223 277.385 29.2705 277.385 60.7119C277.385 92.1533 251.896 117.642 220.455 117.642C189.014 117.642 163.525 92.1533 163.525 60.7119Z" stroke="black" stroke-width="6"/>
<path d="M137.855 60.7113C146.124 53.0481 154.681 53.0481 163.524 60.7113" stroke="black" stroke-width="6"/>
<path d="M22.3558 57.8389H11.0469" stroke="black" stroke-width="6" stroke-linecap="round"/>
<path d="M288.694 57.8389H277.385" stroke="black" stroke-width="6" stroke-linecap="round"/>
</svg>
