<?xml version="1.0" encoding="utf-8"?>
<!-- Generator: Adobe Illustrator 21.1.0, SVG Export Plug-In . SVG Version: 6.00 Build 0)  -->
<svg version="1.1" id="图层_1" xmlns="http://www.w3.org/2000/svg" xmlns:xlink="http://www.w3.org/1999/xlink" x="0px" y="0px"
	 viewBox="0 0 523 217" style="enable-background:new 0 0 523 217;" xml:space="preserve">
<style type="text/css">
	.st0{fill:#595959;}
</style>
<title>Browline</title>
<g id="Browline">
	<path id="Combined-Shape" class="st0" d="M514.9,34.3c0.8,1.1,1.4,3,1.5,5.5l0,0.4l0,0.7c0,0.4,0,0.9,0,1.3l0,0.5l0,0.8l0,0.8
		l0,0.8l-0.1,0.9l0,0.4l0,0.4l-0.1,0.9l0,0.5l-0.1,0.5l-0.1,1l-0.1,1l-0.2,1.3l-0.2,1.3c-0.3,2-1.8,3.6-3.7,4.1l-0.2,0l-0.4,0.1
		c-5,1.1-9.1,5.3-12.1,9.9l-0.2,0.4l-0.4,0.7l-0.2,0.3l-0.2,0.3l-0.4,0.7l-0.4,0.7l-0.4,0.7l-0.4,0.7l-0.3,0.7l-0.1,0.2l-0.1,0.2
		l-0.3,0.7l-0.3,0.7l-0.1,0.2l-0.1,0.2l-0.4,0.9l-0.4,0.9l-0.4,0.8l-0.3,0.8l-0.2,0.5l-0.3,0.9l-0.3,0.9l-0.4,1.1l-1.1,0.7l-0.7,0.4
		l-0.7,0.4l-0.7,0.4l-0.6,0.3c-1,0.5-4,1-5.5,1.3l-0.2,0l-0.5,0.1l-0.1,0l-0.1,0l-0.5,0.1l-0.5,0.1l-0.5,0.1l-0.5,0.1l-0.5,0l-0.5,0
		l-0.5,0l-0.4,0l-0.6,0c-1.7,27.5-12.4,72.8-37.5,92c-33.2,25.5-97.6,16.6-121.9-2.6c-19.4-15.4-40.5-57.2-34.9-89.5
		c-4.4-2.5-7.8-7.4-9.6-12.1l-24.1,0c-1.8,4.7-5.2,9.7-9.6,12.1c5.5,32.3-15.6,74.1-34.9,89.5c-24.3,19.3-88.7,28.1-121.9,2.6
		c-25.1-19.3-35.8-64.5-37.5-92l-0.5,0l-0.4,0l-0.5,0l-0.5,0l-0.5,0l-0.5-0.1L42,85.4l-0.5-0.1L41,85.3c-0.1,0-0.2,0-0.3,0l-0.5-0.1
		c-1.5-0.3-4.7-0.8-5.7-1.4l-0.6-0.3l-0.7-0.4l-0.7-0.4l-0.7-0.4l-1.1-0.7l-0.4-1.1l-0.3-0.9l-0.3-0.9l-0.2-0.5L29,77.3l-0.4-0.8
		l-0.4-0.9l-0.4-0.9c0-0.1-0.1-0.2-0.1-0.3l-0.3-0.7L27.1,73c-0.1-0.1-0.1-0.2-0.2-0.3L26.6,72l-0.4-0.7l-0.4-0.7l-0.4-0.7L25,69.2
		c-0.1-0.2-0.3-0.5-0.4-0.7l-0.4-0.7c-3.1-4.7-7.2-9.1-12.3-10.3l-0.4-0.1c-2-0.4-3.6-2.1-3.9-4.1L7.3,52l-0.2-1.3l-0.1-1l-0.1-1
		c0-0.3-0.1-0.6-0.1-0.9l-0.1-0.9c0-0.3-0.1-0.6-0.1-0.9l-0.1-0.9l0-0.8l0-0.8l0-0.8c0-0.6,0-1.2,0-1.8l0-0.7
		c0.2-2.7,0.7-4.7,1.6-5.9c7.4-8.6,176.6-28.2,242.9,24.1c0.2,0.3,0.4,0.9,0.5,1.7l0,0.4c0,0.1,0,0.1,0,0.2l0,0.4l0,0.7v0.5l0,0.5
		l0,0.5l0,0.6l0,0.6l0,0.3l-0.1,0.6h20.3l-0.1-0.6l0-0.3l0-0.6l0-0.6l0-0.5l0-0.5v-0.5l0-0.7l0-0.4l0-0.1l0-0.1l0-0.4
		c0.1-0.8,0.3-1.4,0.5-1.7C338.4,6.2,507.5,25.7,514.9,34.3z M74.6,44.3L74,44.5l-0.9,0.3l-0.6,0.2l-0.6,0.2l-0.6,0.2l-1,0.4
		L69.5,46l-0.8,0.3l-0.9,0.3l-0.3,0.1l-0.7,0.3l-0.7,0.3c-0.3,0.2-0.7,0.3-1,0.5l-0.7,0.4c-7,3.6-13.1,9.4-16.1,19.5
		c-0.4,1.2-0.6,2.8-0.8,4.6l-0.1,0.8L47.2,74c0,0.4-0.1,0.9-0.1,1.3l0,0.9l0,1c0,0.3,0,0.7,0,1l0,1l0,1.1c0,0.2,0,0.4,0,0.5l0,0.2
		c0.9,26.1,11.8,76.3,37.6,96.1c31.8,24.4,96.1,15.5,119.4-2.9c18.7-14.8,39.9-57.1,34.4-88.8c-1.3-4.8-2.5-9.5-4.6-13.8
		c-1.3-2.4-2.8-4.7-4.6-6.9c-0.2-0.3-0.5-0.5-0.7-0.8C206.7,41.5,119.6,31.6,74.6,44.3z M293.7,64.5L293.7,64.5
		c-1.5,1.8-2.8,3.7-3.9,5.6c-2.6,4.8-3.8,9.9-5.3,15.3l-0.1,0.4l-0.1,0.9c-4.5,31.5,16.3,72.8,34.7,87.3
		c23.3,18.4,87.6,27.3,119.4,2.9c26.5-20.3,37.3-72.9,37.6-98.3l0-0.5l0-0.5l0-0.5l0-1l0-0.9c0-0.3,0-0.6-0.1-0.9l0-0.4l-0.1-0.8
		l-0.1-0.8c-0.2-1.8-0.5-3.4-0.8-4.6c-3-9.9-8.9-15.7-15.8-19.3l-0.4-0.2l-0.7-0.4l-0.5-0.3l-0.5-0.2l-0.7-0.3l-0.7-0.3l-0.3-0.1
		l-0.9-0.3l-0.8-0.3l-0.7-0.2l-1-0.4l-0.6-0.2l-0.6-0.2l-0.6-0.2l-0.9-0.3l-0.6-0.2C402.9,31.4,314.5,41.8,293.7,64.5z M9.3,35.5
		c-0.7,1-1.1,1.9-1.2,3.7L8,39.8c0,0.1,0,0.2,0,0.3l0,0.3l0,0.6c0,0.4,0,0.8,0,1.3l0,0.5l0,0.7l0,0.8l0,0.8L8,46l0,0.4l0,0.4
		l0.1,0.9l0,0.5l0.1,0.5l0.1,0.9l0.1,1l0.2,1.3l0.2,1.3c0.6,1.6,1.1,2.4,2.5,3.2l0.2,0.1l0.4,0.1c5.4,1.1,9.8,5.8,13.1,10.7l0.4,0.7
		c0.1,0.1,0.1,0.2,0.2,0.3l0.4,0.7l0.4,0.7l0.4,0.7l0.4,0.7l0.4,0.7l0.3,0.6l0.3,0.6l0.3,0.6l0.3,0.6l0.3,0.6l0.3,0.6l0.4,0.8
		l0.3,0.7l0.4,0.9l0.3,0.8l0.4,1l0.2,0.4l0.4,0.8l1.7,1l0.7,0.4l0.6,0.3c1.1,0.5,3.4,1.2,4.6,1.5l0.5,0.1c0.1,0,0.2,0,0.3,0l0.5,0.1
		c0.1,0,0.2,0,0.2,0l0.5,0.1c0.1,0,0.2,0,0.2,0l0.5,0l0.4,0l0.6,0l0.5,0l0.3,0l0.3,0l0.3,0l0.2,0c0.1,0,0.1,0,0.2-0.1
		c0.1-0.1,0.2-0.4,0.1-0.8l0-0.6l0-1.1l0-1.1l0-1.1l0-0.5l0-1l0-1l0-0.5l0-0.5l0-0.9l0-0.9c0-0.3,0-0.6,0.1-0.9l0-0.4l0.1-0.8
		l0.1-0.8c0.2-1.8,0.5-3.9,1-5.1c0.1-0.2,0.2-0.5,0.3-0.7c0.8-2.5,1.8-4.7,3.1-6.7c1.3-2.2,2.8-4.3,4.9-6.1
		c4.4-4.3,10.7-7.7,18.9-10.3l0.6-0.2l0.6-0.2l0.6-0.2l0.9-0.3l0.6-0.2c39.3-9.5,105-5.1,139.1,12.1c2.3,1.1,4.4,2.3,6.3,3.6
		c4.3,2.8,7.9,5.8,10.5,9.1c3.3,4.8,4.8,8.4,6.3,13.4l0.3,1.1l0.3,1.1l0.3,1.2c3.2-2.1,4.8-4,6.1-6.4l0.3-0.6l0.3-0.6l0.3-0.6
		l0.4-0.9l0.8-1.7l0.2-0.7c0.1-0.3,0.2-0.6,0.2-0.9l0.1-0.4l0.2-0.7l0.1-0.7l0.1-0.6l0.1-0.5l0.1-0.5l0.1-0.8l0.1-0.7l0-0.3l0-0.6
		l0-0.5l0-0.5l0-0.5v-0.5l0-0.2l0-0.4l0-0.4l0-0.2l0-0.4c-0.1-0.8-0.3-1.3-0.5-1.6C184.2,7.8,16.7,27.1,9.3,35.5z M273.7,59.5
		c-0.2,0.3-0.4,0.7-0.5,1.4l0,0.2l0,0.4l0,0.2l0,0.4l0,0.4l0,0.2v0.5l0,0.5l0,0.5l0,0.5l0,0.6l0,0.3l0.1,0.7l0.1,0.8l0.1,0.5
		l0.1,0.5l0.1,0.6l0.1,0.7l0.2,0.7l0.1,0.4l0.1,0.4l0.1,0.5l0.2,0.7l0.8,1.7l0.4,0.9l0.3,0.6l0.3,0.6l0.3,0.6
		c1.3,2.3,2.8,4.1,5.7,6.1l0.4,0.2l0.3-1.2l0.3-1.1l0.3-1.1c1.5-5,3.1-8.6,6.3-13.4c2.2-2.8,5.2-5.4,8.7-7.8c3-2.1,6.5-4.1,10.6-6
		c34.3-16,97-20.1,135.6-11.2l1.2,0.3l0.6,0.2l0.9,0.3l0.6,0.2l0.6,0.2l0.6,0.2c8.2,2.6,14.6,6,18.9,10.3c2.7,2.4,4.6,5.4,6.1,8.4
		c0.4,0.8,0.8,1.7,1.2,2.6c0.3,0.9,0.7,1.7,1,2.5c0.4,1.1,0.7,3,0.9,4.7l0,0.4l0.1,0.8l0.1,0.8l0,0.4l0,0.4l0,0.4l0,0.9l0,0.9l0,0.5
		l0,0.5l0,1l0,1l0,0.5l0,1.1l0,1.1l0,1.1l0,0.6c-0.1,0.4,0,0.7,0.1,0.8c0,0,0,0,0.1,0l0.1,0l0.2,0l0.3,0l0.3,0l0.3,0l0.5,0l0.6,0
		l0.4,0l0.5,0l0.1,0l0.1,0l0.5-0.1l0.1,0l0.1,0l0.5-0.1l0.1,0l0.1,0l0.5-0.1c1.1-0.2,3.2-0.9,4.4-1.4l0.2-0.1l0.6-0.3l0.7-0.4l1.7-1
		l0.4-0.8l0.2-0.4l0.4-1l0.3-0.8l0.4-0.9l0.3-0.7l0.4-0.8l0.3-0.6l0.3-0.6l0.3-0.6l0.3-0.6l0.3-0.6l0.3-0.6l0.4-0.7l0.4-0.7l0.4-0.7
		l0.4-0.7l0.4-0.7l0.1-0.2l0.1-0.2l0.4-0.7c3.2-4.7,7.5-9.3,12.7-10.6l0.4-0.1l0.4-0.1l0.2-0.1c1.4-0.8,1.9-1.5,2.4-2.9l0.1-0.2
		l0.2-1.3l0.2-1.3l0.1-1l0.1-0.9l0.1-0.5l0-0.5l0.1-0.9l0-0.4l0-0.4l0.1-0.8l0-0.8l0-0.8l0-0.7l0-0.5c0-0.3,0-0.6,0-0.9l0-0.4l0-0.6
		l0-0.3l0-0.2l0-0.2l-0.1-0.6c-0.2-1.8-0.5-2.7-1.2-3.7C506.3,27.1,338.8,7.8,273.7,59.5z M260.9,67.6l-0.8,0
		c-2.8,0-5.2,0.1-5.8,0.3c-1.3,0.5-1.4,3.1-0.4,3.4c1,0.3,13.5,0.5,15.2,0c1.7-0.5,1.4-3.1-0.4-3.4
		C267.6,67.7,264.2,67.6,260.9,67.6z M261.2,68.6l0.7,0c1.9,0,3.7,0.1,4.3,0.1c1.2,0.2,1.4,1.5,0.3,1.7c-0.5,0.1-2.4,0.2-4.4,0.2
		l-0.6,0c-2.2,0-4.4-0.1-4.7-0.2c-0.7-0.2-0.6-1.5,0.2-1.7c0.4-0.1,1.9-0.1,3.7-0.1L261.2,68.6L261.2,68.6z"/>
</g>
</svg>
