<svg
          viewBox="0 0 457 457"
          fill="none"
          xmlns="http://www.w3.org/2000/svg"
          class="mx-auto rounded-full shadow-lg"
        >
          <path
            d="M457 228.5C457 354.697 354.697 457 228.5 457C102.303 457 0 354.697 0 228.5C0 102.303 102.303 0 228.5 0C354.697 0 457 102.303 457 228.5Z"
            fill="#1e40af"
          />
          <path
            fill-rule="evenodd"
            clip-rule="evenodd"
            d="M273.99 95.7369C250.729 100.819 229.583 120.133 221.23 143.924C217.129 155.604 217.193 176.682 221.369 189.423C228.499 211.176 245.865 228.583 267.517 235.679C280.425 239.909 301.423 239.997 313.176 235.87C343.248 225.312 362.904 198.05 362.966 166.814C363.057 120.268 319.815 85.7239 273.99 95.7369ZM99.4834 117.275C94.3414 120.352 93.3854 126.61 97.4384 130.662C99.8184 133.043 100.34 133.118 114.688 133.161C143.241 133.245 142.682 132.737 149.291 164.617C151.913 177.267 155.605 194.817 157.496 203.617C159.387 212.417 162.99 229.517 165.502 241.617C168.014 253.717 170.305 264.404 170.594 265.367C171.046 266.877 170.403 267.117 165.916 267.117C158.305 267.117 153.383 268.952 147.993 273.798C134.809 285.651 137.349 305.912 153.113 314.643C158.483 317.617 158.483 317.617 247.319 317.617C336.156 317.617 336.156 317.617 338.569 314.811C341.654 311.225 341.654 307.009 338.57 303.423C336.157 300.617 336.157 300.617 248.867 300.351C161.577 300.084 161.577 300.084 159.28 297.926C156.127 294.964 156.198 289.811 159.438 286.572C161.892 284.117 161.892 284.117 248.382 284.117C334.871 284.117 334.871 284.117 337.561 281.804C339.935 279.761 340.704 277.348 344.136 261.157C346.274 251.073 347.841 242.642 347.619 242.42C347.397 242.198 344.692 243.784 341.609 245.944C316.769 263.344 279.007 265.908 250.224 252.148C218.387 236.929 198.086 206.727 196.262 171.867L195.7 161.117H166.367L163.731 149.137C159.765 131.111 155.547 124.533 144.483 119.125C138.608 116.254 103.595 114.814 99.4834 117.275ZM324.616 132.889C329.291 136.676 330.271 142.593 327.055 147.617C325.999 149.267 316.213 160.725 305.309 173.08C278.879 203.026 280.304 202.696 260.802 183.4C244.497 167.267 242.492 162.074 250.094 155.677C256.034 150.679 260.172 152.086 271.097 162.82L278.711 170.3L291.589 155.459C311.955 131.985 312.905 131.113 318.09 131.139C320.734 131.153 323.332 131.849 324.616 132.889ZM205.483 329.943C188.058 338.183 194.498 363.483 213.617 361.897C233.995 360.208 234.209 331.052 213.863 328.583C210.755 328.206 208.321 328.601 205.483 329.943ZM295.667 329.566C278.495 335.69 282.972 362.117 301.181 362.117C319.548 362.117 325.193 337.567 308.562 330.013C303.74 327.823 300.835 327.723 295.667 329.566Z"
            fill="white"
          />
        </svg>