<svg width="300" height="123" viewBox="0 0 300 123" fill="none" xmlns="http://www.w3.org/2000/svg">
<path d="M23.9961 61.7119C23.9961 30.2705 49.4844 4.78223 80.9258 4.78223C112.367 4.78223 137.855 30.2705 137.855 61.7119C137.855 93.1533 112.367 118.642 80.9258 118.642C49.4844 118.642 23.9961 93.1533 23.9961 61.7119Z" fill="#F3F4F6"/>
<path d="M163.525 61.7119C163.525 30.2705 189.014 4.78223 220.455 4.78223C251.896 4.78223 277.385 30.2705 277.385 61.7119C277.385 93.1533 251.896 118.642 220.455 118.642C189.014 118.642 163.525 93.1533 163.525 61.7119Z" fill="#F3F4F6"/>
<path d="M137.855 61.7122C146.124 54.049 154.681 54.049 163.524 61.7122" stroke="black" stroke-width="6" stroke-linecap="round"/>
<path d="M24.5061 58.8379H13.1973" stroke="black" stroke-width="6" stroke-linecap="round"/>
<path d="M288.694 58.8379H277.385" stroke="black" stroke-width="6" stroke-linecap="round"/>
</svg>
