<svg width="181" height="74" viewBox="0 0 181 74" fill="none" xmlns="http://www.w3.org/2000/svg">
<path fill-rule="evenodd" clip-rule="evenodd" d="M24.164 1.57099C14.665 3.75099 7.506 8.82399 3.454 16.246C1.014 20.714 0.521997 22.906 0.166997 30.899C-0.709003 50.583 5.979 64.419 19.542 70.984C23.537 72.918 26.152 73.395 33 73.442C45.146 73.525 52.102 69.961 65.029 57.031C77.204 44.854 81.893 36.274 82.861 24.403L83.5 16.577L87 15.841C88.925 15.436 92.075 15.519 94 16.026L97.5 16.948L97.623 23.224C97.979 41.381 118.148 65.906 138.2 72.567C152.049 77.166 169.018 69.929 175.874 56.5C180.888 46.68 182.442 31.22 179.435 21.093C177.251 13.74 169.622 6.04799 161.5 3.01099C155.53 0.777994 155.186 0.765995 92.164 0.632995C50.249 0.544995 27.25 0.861995 24.164 1.57099ZM51 5.01999C63.178 6.28199 70.027 8.44699 74.737 12.521C78.414 15.701 78.499 15.933 78.471 22.638C78.424 33.849 71.602 45.915 58.83 57.379C49.631 65.637 41.474 69.43 33.083 69.353C25.259 69.282 19.02 66.866 14.194 62.04C2.27 50.116 0.381997 24.121 10.67 13.528C18.504 5.46099 30.616 2.90599 51 5.01999ZM151.401 5.03699C170.133 7.74499 178.808 19.88 176.187 39.704C173.645 58.922 163.146 69.399 146.406 69.422C138.001 69.433 129.247 64.473 118.491 53.604C107.172 42.164 102.74 34.089 102.161 23.845C101.775 17.012 101.786 16.979 105.682 13.083C110.194 8.57099 116.501 6.37599 128.633 5.09599C139.811 3.91699 143.582 3.90699 151.401 5.03699ZM105.118 7.41299C103.32 8.73999 101.315 10.554 100.664 11.444C99.668 12.807 98.957 12.881 96.17 11.91C93.072 10.83 86.401 11.053 83 12.352C82.097 12.696 79.758 11.348 77.121 8.96199L72.743 4.99999H90.566H108.389L105.118 7.41299Z" fill="black"/>
</svg>
