<svg
          viewBox="0 0 457 457"
          fill="none"
          xmlns="http://www.w3.org/2000/svg"
          class="mx-auto rounded-full shadow-lg"
        >
          <path
            d="M457 228.5C457 354.697 354.697 457 228.5 457C102.303 457 0 354.697 0 228.5C0 102.303 102.303 0 228.5 0C354.697 0 457 102.303 457 228.5Z"
            fill="#1e40af"
          />
          <path
            fill-rule="evenodd"
            clip-rule="evenodd"
            d="M214.921 94.7418C147.569 105.337 109.35 175.812 137.9 236.768C166.119 297.016 242.892 313.825 293.868 270.916C351.338 222.54 336.057 129.551 265.949 101.02C252.151 95.4048 228.893 92.5438 214.921 94.7418ZM233.844 130.326C235.018 131.563 239.903 138.835 244.699 146.485C254.552 162.198 250.706 159.822 277.375 166.671C296.444 171.568 296.715 174.054 280.303 193.48L268.685 207.231L269.894 225.08C271.246 245.048 271.016 246.712 266.655 248.546C262.944 250.106 262.602 250.012 243.689 242.253L228.958 236.208L216.689 241.227C196.022 249.681 194.751 250.044 191.134 248.524C186.313 246.496 186.191 244.916 188.547 215.05L189.14 207.524L177.92 194.075C159.564 172.072 159.6 171.967 188.024 164.639L204.307 160.441L213.675 145.509C218.827 137.296 223.776 130.014 224.672 129.326C227.214 127.378 231.492 127.844 233.844 130.326ZM221.757 161.182C213.842 173.898 213.717 173.989 199.354 177.459C192.791 179.045 187.272 180.469 187.091 180.623C186.909 180.777 190.657 185.555 195.419 191.24L204.078 201.576L203.466 215.826C203.129 223.664 203.019 230.076 203.221 230.076C203.423 230.076 209.3 227.833 216.28 225.093L228.972 220.109L241.57 225.136C248.499 227.9 254.361 229.969 254.596 229.734C254.832 229.499 254.628 223.742 254.144 216.941C253.076 201.943 252.817 202.714 262.929 190.688C267.435 185.329 270.964 180.816 270.772 180.66C270.579 180.504 265.471 179.171 259.421 177.698C243.393 173.795 244.171 174.327 236.537 162.044C232.787 156.012 229.342 151.076 228.883 151.076C228.423 151.076 225.216 155.624 221.757 161.182ZM311.921 274.294C295.131 292.125 272.288 304.484 249.332 308.157C244.981 308.853 241.122 309.682 240.757 310C240.392 310.317 245.792 321.826 252.757 335.576C269.973 369.563 269.567 369.453 287.933 345.06L299.968 329.076H318.795C342.531 329.076 345.921 328.021 345.921 320.634C345.921 318.53 320.48 265.784 319.667 266.203C319.532 266.272 316.046 269.914 311.921 274.294ZM124.661 292.326C109.895 322.251 110.805 319.894 112.483 323.886C114.452 328.567 116.998 329.076 138.47 329.076H157.889L169.655 344.815C188.151 369.556 187.839 369.639 205.198 335.305C213.662 318.564 217.543 309.911 216.698 309.671C215.996 309.471 211.066 308.539 205.743 307.6C185.231 303.979 163.022 291.93 146.921 275.686C142.246 270.97 138.128 267.103 137.771 267.093C137.413 267.084 131.514 278.439 124.661 292.326Z"
            fill="white"
          />
        </svg>