<svg width="371" height="512" viewBox="0 0 371 512" fill="none" xmlns="http://www.w3.org/2000/svg">
<path fill-rule="evenodd" clip-rule="evenodd" d="M172.179 0.241381C149.277 2.86038 136.154 5.69338 121.419 11.1974C82.1704 25.8584 49.4114 52.7774 27.1064 88.6974C6.08837 122.542 -3.61864 166.423 1.22436 205.692C9.00036 268.742 53.9774 355.804 128.555 452.166C146.193 474.957 168.867 502.248 174.064 506.943C180.935 513.15 189.423 513.15 196.294 506.943C201.491 502.248 224.165 474.957 241.803 452.166C308.925 365.438 351.948 286.645 365.562 225.515C369.065 209.783 370.181 199.523 370.166 183.192C370.122 135.144 350.866 89.2524 316.223 54.6284C287.585 26.0064 253.837 8.66938 214.179 2.20538C204.788 0.674381 178.955 -0.533619 172.179 0.241381ZM196.857 92.7274C234.177 97.7894 265.081 124.589 275.201 160.666C277.869 170.178 278.878 189.302 277.257 199.661C272.628 229.256 253.178 255.284 225.679 268.684C209.461 276.586 192.925 279.563 175.929 277.638C162.747 276.145 156.058 274.229 144.679 268.684C117.18 255.284 97.7304 229.256 93.1014 199.661C91.4804 189.302 92.4894 170.178 95.1574 160.666C107.662 116.086 151.781 86.6134 196.857 92.7274Z" fill="black"/>
</svg>
