<svg width="618" height="173" viewBox="0 0 618 173" fill="none" xmlns="http://www.w3.org/2000/svg">
<path fill-rule="evenodd" clip-rule="evenodd" d="M233.84 0.719327C198.922 5.27017 169.789 30.5803 161.309 63.7321C154.981 88.4709 159.021 113.957 172.514 134.414C205.186 183.946 278.722 186.208 314.465 138.782C325.608 123.997 331.486 105.974 331.471 86.6356C331.455 62.6183 322.735 41.3784 306.217 25.1178C287.13 6.32783 260.273 -2.7249 233.84 0.719327ZM402.423 0.745808C395.552 1.89495 385.934 5.28541 380.484 8.47846C377.639 10.1452 372.573 14.217 369.225 17.5272C354.51 32.0785 350.211 52.3747 358.265 69.2869C364.244 81.8424 375.525 91.1431 395.687 100.138C423.068 112.353 429.266 116.59 428.318 122.436C427.68 126.362 425.869 128.79 422.171 130.677C412.186 135.77 393.522 131.735 379.752 121.506C374.975 117.957 374.586 117.81 373.608 119.182C373.034 119.986 367.493 127.326 361.293 135.491L350.023 150.337L353.793 153.712C361.784 160.865 376.866 167.934 390.581 170.954C401.009 173.25 420.542 173.459 428.877 171.364C437.494 169.199 444.49 166.149 451.626 161.447C459.758 156.089 464.638 150.649 468.801 142.303C477.617 124.626 474.864 105.685 461.501 92.0708C452.824 83.2307 443.48 77.7755 419.765 67.7028C405.64 61.7027 400.061 58.7126 397.652 55.851C391.367 48.3832 400.772 40.6104 416.153 40.5598C424.364 40.5334 430.545 42.042 437.637 45.8048C440.183 47.1554 442.376 48.116 442.509 47.9402C448.676 39.8103 465.514 16.8114 465.514 16.5185C465.514 15.7064 456.134 10.5529 449.38 7.65432C434.686 1.34847 415.604 -1.45859 402.423 0.745808ZM545.373 1.06279C528.837 4.13868 514.849 13.1633 506.285 26.2798C501.023 34.3382 498.9 41.5036 498.892 51.2312C498.884 61.0607 500.737 67.4139 505.833 75.0326C512.676 85.2618 523.649 92.9527 544.714 102.281C567.567 112.403 572.638 115.928 572.612 121.674C572.595 125.646 570.479 128.625 566.211 130.692C555.887 135.688 537.282 131.585 524.03 121.391C521.368 119.343 519.029 117.829 518.833 118.025C518.636 118.222 513.084 125.571 506.496 134.356C492.832 152.576 493.243 150.512 502.032 156.758C507.936 160.954 517.093 165.602 524.268 168.044C534.952 171.683 542.161 172.749 555.807 172.712C570.967 172.67 577.224 171.324 588.714 165.634C607.711 156.227 618.027 140.763 618 121.733C617.967 98.501 603.875 84.2266 565.037 68.088C541.527 58.3178 536.368 53.4476 542.197 46.523C548.66 38.8425 568.676 38.4124 581.679 45.6748C583.99 46.9652 586.068 48.0213 586.297 48.0213C586.526 48.0213 591.97 40.9442 598.394 32.2943C611.927 14.0733 611.932 16.6372 598.346 9.90366C581.431 1.521 561.126 -1.86786 545.373 1.06279ZM0 86.5313V169.267L47.1533 169.008C99.1512 168.722 96.9625 168.923 108.079 163.417C133.295 150.93 143.202 118.596 129.271 94.2519C126.879 90.0718 118.362 81.2269 115.009 79.4398L113.238 78.4961L116.492 73.3073C130.29 51.3042 122.618 22.5394 99.5236 9.68459C89.8369 4.29275 90.7166 4.38022 43.1403 4.07368L0 3.79602V86.5313ZM74.8506 42.2731C82.9497 47.3079 84.193 58.626 77.3499 65.0225C73.6459 68.4852 71.4475 68.8856 56.1305 68.8856H41.7357V54.9763C41.7357 47.3255 42.0038 40.7982 42.3321 40.4708C42.6595 40.1426 49.4319 39.9925 57.381 40.1361C70.8905 40.3809 72.0302 40.5205 74.8506 42.2731ZM255.476 42.7987C262.732 44.6878 268.036 47.8198 273.886 53.6683C284.87 64.6502 289.466 80.7591 286.122 96.5478C283.346 109.645 274.886 121.357 264.195 126.901C257.455 130.397 251.707 131.748 244.015 131.642C228.806 131.435 215.798 123.212 208.394 109.127C204.722 102.138 203.084 95.1739 203.084 86.5401C203.084 82.7885 203.629 77.4087 204.294 74.5856C207.83 59.5873 219.873 46.5736 233.644 42.8718C239.345 41.3382 249.736 41.3037 255.476 42.7987ZM82.4369 102.671C86.6915 104.731 89.4733 108.224 90.796 113.167C92.1701 118.303 90.7519 122.806 86.3897 127.165C81.8197 131.731 78.1646 132.37 58.178 132.098L42.137 131.88L41.9187 116.432L41.7012 100.985H60.3266C77.6132 100.985 79.2023 101.106 82.4369 102.671Z" fill="black"/>
</svg>
