<svg width="825" height="828" viewBox="0 0 825 828" fill="none" xmlns="http://www.w3.org/2000/svg">
<path fill-rule="evenodd" clip-rule="evenodd" d="M36.1203 0.623336C20.8153 2.22734 10.0153 6.02034 5.91533 11.2323C3.36333 14.4763 0.966327 22.1853 0.164327 29.7303C-1.90967 49.2383 15.7233 60.4283 48.8233 60.6103C63.9253 60.6933 83.4323 62.3663 89.3513 64.0873C95.1983 65.7873 100.301 68.9903 103.025 72.6703C104.063 74.0713 110.316 93.8713 116.922 116.67C160.411 266.77 220.687 469.242 230.638 498.652C241.994 532.218 252.269 549.417 267.426 560.233C287.336 574.441 313.434 579.556 376.4 581.591C439.556 583.633 590.356 582.457 632.823 579.592C702.529 574.888 725.376 564.421 738.617 531.122C761.068 474.661 824.823 230.659 824.823 201.198C824.823 195.457 819.426 192.511 804.632 190.174C773.004 185.177 734.314 184.489 453.218 183.927L197.112 183.414L189.831 156.268C172.836 92.9003 165.892 71.3833 156.3 52.3633C147.152 34.2243 135.468 20.5713 122.356 12.6993C114.981 8.27134 102.833 4.00134 91.9593 2.01534C81.8383 0.166336 48.4263 -0.666664 36.1203 0.623336ZM738.993 244.414C748.162 244.803 755.916 245.376 756.225 245.686C757.597 247.068 735.378 335.293 716.26 404.372L710.379 425.622H539.672C385.818 425.622 368.811 425.777 367.394 427.193C366.53 428.058 365.823 429.494 365.823 430.385C365.823 434.026 374.518 446.513 382.77 454.722C389.639 461.556 393.151 464.173 399.869 467.462C416.767 475.737 403.509 475.071 557.648 475.384L694.973 475.663L694.273 478.893C693.034 484.603 683.678 511.083 682.48 512.264C679.572 515.134 657.828 518.666 631.27 520.581C605.89 522.412 544.65 523.574 473.323 523.579C361.121 523.588 321.017 521.351 305.274 514.208C295.404 509.729 291.957 500.546 259.449 392.122C252.029 367.372 239.385 324.847 231.353 297.622C223.32 270.397 216.322 246.838 215.802 245.27L214.856 242.417L468.589 243.062C608.143 243.416 729.825 244.025 738.993 244.414ZM329.823 706.222C316.42 709.799 301.002 719.771 292.497 730.362C282.387 742.952 276.729 755.65 276.562 766.122C276.119 793.904 313.651 829.795 340.522 827.286C353.206 826.101 365.498 819.151 378.823 805.63C392.823 791.424 399.7 776.912 398.503 764.098C397.049 748.524 384.679 729.043 369.258 718.038C361.665 712.62 350.194 707.24 343.024 705.735C336.622 704.391 336.693 704.388 329.823 706.222ZM636.823 706.185C629.102 708.195 616.443 714.805 609.109 720.657C601.376 726.827 593.821 736.682 588.82 747.122C581.607 762.181 581.495 770.992 588.334 785.212C599.065 807.523 625.599 827.622 644.323 827.622C657.375 827.622 679.187 815.469 689.917 802.22C698.674 791.405 705.823 775.291 705.823 766.367C705.823 756.7 697.231 738.606 687.676 728.152C678.242 717.829 662.235 708.299 650.024 705.735C643.64 704.394 643.713 704.392 636.823 706.185Z" fill="#434343"/>
</svg>
