<svg width="512" height="385" viewBox="0 0 512 385" fill="none" xmlns="http://www.w3.org/2000/svg">
<path fill-rule="evenodd" clip-rule="evenodd" d="M37.263 1.58379C2.234 9.19379 -12.022 52.8898 12.315 78.0508C16.993 82.8878 229.486 225.034 237.5 228.689C249.004 233.934 263.566 233.745 275.5 228.195C278.8 226.66 329.425 193.442 388 154.377C498.462 80.7068 501.778 78.3058 506.911 68.2448C520.712 41.1918 504.437 7.9318 474.27 1.5388C464.451 -0.541204 46.849 -0.499205 37.263 1.58379ZM0 224.437C0 305.426 0.336 342.588 1.102 346.271C4.804 364.079 19.605 378.76 37.73 382.601C47.883 384.752 464.117 384.752 474.27 382.601C492.734 378.688 507.561 363.723 510.96 345.57C511.762 341.29 512 306.384 511.792 223.82L511.5 108.071L405 179.132C346.425 218.215 294.958 251.997 290.63 254.203C278.941 260.159 269.777 262.302 256 262.302C242.506 262.302 233.134 260.177 222.08 254.61C218.148 252.63 166.909 218.961 108.215 179.79C49.522 140.619 1.163 108.42 0.75 108.237C0.337 108.053 0 160.344 0 224.437Z" fill="#ffffff"/>
</svg>
