<?xml version="1.0" encoding="utf-8"?>
<!-- Generator: Adobe Illustrator 26.5.2, SVG Export Plug-In . SVG Version: 6.00 Build 0)  -->
<svg version="1.1" id="Layer_1" xmlns="http://www.w3.org/2000/svg" xmlns:xlink="http://www.w3.org/1999/xlink" x="0px" y="0px"
	 viewBox="0 0 594.19 580.55" style="enable-background:new 0 0 594.19 580.55;" xml:space="preserve">
<style type="text/css">
	.st0{display:none;fill:#FDFDFE;}
	.st1{fill:#434343;}
</style>
<path class="st0" d="M445.32,407.75c-95.97,0-191.98,0-288,0c0-95.99,0-191.97,0-288c95.97,0,191.95,0,288,0
	C445.32,215.72,445.32,311.73,445.32,407.75z M324.18,405.19c63.99-9.07,122.79-67.21,120.52-145.54
	c-2.28-78.51-67.26-140.58-146-138.73c-79.62,1.88-142.12,67.17-140.26,145.76c1.86,78.5,62.76,130.9,120.6,138.42
	c0-33.19,0-66.37,0-99.81c-12.1,0-24.03,0-36.04,0c0-13.89,0-27.51,0-41.38c12.1,0,24.04,0,36.2,0c0-4.06-0.07-7.88,0.01-11.7
	c0.23-10.37-0.16-20.81,0.93-31.09c2.5-23.73,18.38-39.79,41.96-43.51c10.45-1.65,20.87-0.68,31.29,0.35c3.95,0.39,7.89,1,11.8,1.5
	c0,11.91,0,23.52,0,35.29c-1.13,0-2.08-0.01-3.03,0c-5.91,0.07-11.83-0.11-17.72,0.26c-13.1,0.82-20.3,8.63-20.38,21.8
	c-0.05,8.31-0.01,16.61,0,24.92c0,0.69,0.1,1.37,0.17,2.26c13.16,0,26.15,0,39.36,0c-0.11,1.08-0.15,1.95-0.28,2.79
	c-1.83,11.91-3.78,23.81-5.44,35.74c-0.34,2.48-1.25,2.87-3.45,2.84c-9.19-0.11-18.37-0.05-27.56-0.05c-0.86,0-1.71,0-2.67,0
	C324.18,338.79,324.18,371.98,324.18,405.19z"/>
<path class="st1" d="M344,557.68c0-62.72,0-125.41,0-188.62c1.81,0,3.42,0,5.04,0c17.35,0,34.71-0.12,52.05,0.09
	c4.16,0.05,5.86-0.68,6.51-5.37c3.13-22.54,6.81-45.01,10.27-67.51c0.25-1.6,0.33-3.23,0.53-5.27c-24.95,0-49.48,0-74.34,0
	c-0.13-1.68-0.31-2.97-0.31-4.27c-0.02-15.69-0.09-31.38,0.01-47.07c0.15-24.87,13.75-39.62,38.5-41.18
	c11.12-0.7,22.31-0.36,33.47-0.49c1.8-0.02,3.59,0,5.73,0c0-22.22,0-44.16,0-66.65c-7.4-0.95-14.82-2.1-22.29-2.84
	c-19.67-1.95-39.36-3.78-59.1-0.67c-44.55,7.03-74.54,37.36-79.26,82.18c-2.05,19.42-1.32,39.14-1.75,58.73
	c-0.16,7.21-0.03,14.42-0.03,22.1c-22.96,0-45.52,0-68.38,0c0,26.2,0,51.92,0,78.16c22.68,0,45.23,0,68.07,0
	c0,63.17,0,125.83,0,188.52C149.51,543.3,34.48,444.33,30.96,296.08c-3.52-148.44,114.53-271.75,264.9-275.3
	c148.73-3.51,271.45,113.74,275.76,262.01C575.92,430.74,464.85,540.54,344,557.68z"/>
</svg>
