<svg width="1197" height="1198" viewBox="0 0 1197 1198" fill="none" xmlns="http://www.w3.org/2000/svg">
<path fill-rule="evenodd" clip-rule="evenodd" d="M467.357 0.855564C439.857 1.25456 405.657 2.07656 391.357 2.68156C377.057 3.28756 358.832 4.02856 350.857 4.32956C313.58 5.73756 289.73 8.39256 264.857 13.9036C219.72 23.9056 179.737 40.4336 145.376 63.2946C75.2921 109.922 27.5721 186.188 11.4761 277.295C3.41913 322.898 2.26113 349.787 0.693125 527.795C-0.231875 632.838 -0.230874 679.142 0.695126 733.795C2.79113 857.464 5.22513 891.081 15.3911 936.795C29.5281 1000.37 55.8711 1050.84 97.1781 1093.5C155.246 1153.47 228.902 1184.63 332.857 1193.2C379.625 1197.06 395.82 1197.3 596.357 1197.12C834.121 1196.9 863.647 1196.15 908.788 1189.19C1009.76 1173.61 1086.39 1127.22 1137.35 1050.79C1169.63 1002.4 1186.63 950.392 1192.9 880.873C1196.77 837.894 1196.83 833.968 1196.83 600.295C1196.84 353.265 1196.63 342.061 1191.28 300.795C1177.03 190.963 1127.74 109.652 1043.38 56.8076C1009.35 35.4926 972.413 21.2086 929.857 12.9056C907.381 8.52056 883.352 6.18456 830.857 3.27956C776.161 0.253563 593.006 -0.967436 467.357 0.855564ZM784.357 109.865C847.284 111.664 873.225 113.481 898.567 117.866C967.849 129.855 1018.01 161.525 1050.55 213.826C1070.18 245.385 1081.88 287.982 1086.38 344.295C1088.25 367.746 1089.73 494.006 1090 653.295C1090.24 793.294 1088.54 848.771 1082.78 888.295C1074.29 946.655 1054.05 989.273 1018.66 1023.36C984.889 1055.89 945.575 1073.37 886.22 1082.25C851.996 1087.36 785.292 1088.84 576.378 1089.11C424.822 1089.3 404.53 1088.96 343.904 1085.22C330.454 1084.4 316.054 1083.26 311.904 1082.71C255.802 1075.19 210.751 1054.49 176.955 1020.7C138.16 981.902 118.134 930.499 112.889 856.252C110.538 822.967 109.74 773.357 109.183 625.795C108.589 468.459 109.13 423.887 112.384 362.295C115.895 295.839 122.201 265.998 140.397 229.715C167.894 174.887 214.095 138.674 276.857 122.755C313.014 113.584 352.229 110.473 452.857 108.791C511.717 107.808 738.027 108.541 784.357 109.865ZM901.087 209.81C865.451 219.147 842.05 254.772 848.219 290.295C853.006 317.863 871.932 339.728 898.69 348.603C905.383 350.823 908.073 351.146 919.857 351.146C931.641 351.146 934.331 350.823 941.024 348.603C952.711 344.727 961.455 339.367 969.94 330.88C981.872 318.944 988.373 306.189 990.953 289.653C994.078 269.624 987.031 246.215 973.27 230.909C964.332 220.968 949.815 212.412 936.599 209.296C927.639 207.184 910.145 207.437 901.087 209.81ZM567.857 292.937C504.582 298.731 440.286 327.692 391.857 372.212C297.544 458.913 266.532 593.524 313.507 712.295C328.811 750.99 351.215 785.021 381.357 815.355C452.679 887.133 551.432 919.139 650.774 902.674C751.573 885.967 840.475 816.818 881.67 723.079C899.656 682.151 907.741 643.882 907.82 599.295C907.921 542.331 892.984 488.718 863.382 439.795C813.284 356.998 724.916 301.388 629.857 292.836C616.425 291.628 581.532 291.685 567.857 292.937ZM620.883 400.818C696.116 409.901 757.544 456.629 785.176 525.795C811.791 592.413 799.315 670.73 753.327 725.727C719.565 766.102 673.958 790.714 621.465 796.887C609.058 798.346 577.311 797.532 566.357 795.474C546.146 791.677 530.054 786.406 512.357 777.787C490.421 767.104 474.511 755.419 456.296 736.616C425.173 704.488 406.695 664.781 401.699 619.295C400.312 606.675 401.181 578.239 403.318 566.295C415.021 500.87 455.637 447.173 514.703 419.037C533.761 409.958 556.843 403.336 577.857 400.918C588.635 399.677 611.006 399.626 620.883 400.818Z" fill="#434343"/>
</svg>
