<svg width="513" height="360" viewBox="0 0 513 360" fill="none" xmlns="http://www.w3.org/2000/svg">
<path fill-rule="evenodd" clip-rule="evenodd" d="M36.14 0.984279C19.053 4.33928 4.364 19.3303 1.053 36.7933C-0.351 44.1933 -0.351 315.611 1.053 323.011C4.459 340.971 18.963 355.475 36.923 358.881C44.367 360.293 467.697 360.293 475.141 358.881C493.101 355.475 507.605 340.971 511.011 323.011C512.415 315.611 512.415 44.1933 511.011 36.7933C507.605 18.8333 493.101 4.32928 475.141 0.923282C468.447 -0.346718 42.614 -0.287721 36.14 0.984279ZM372.642 117.464C311.235 178.573 283.038 205.968 279.064 208.383C264.915 216.978 247.149 216.978 233 208.383C229.026 205.968 200.829 178.573 139.422 117.464L51.532 30.0013H256.032H460.532L372.642 117.464ZM114.528 134.838L159.524 179.903L105.528 233.967C75.83 263.702 46.695 292.552 40.782 298.078L30.032 308.125V179.896V51.6673L49.782 70.7203C60.644 81.1993 89.78 110.052 114.528 134.838ZM481.789 244.152L481.532 308.402L417.032 244.129L352.532 179.856L417.032 115.643L481.532 51.4293L481.789 115.666C481.931 150.996 481.931 208.814 481.789 244.152ZM191.551 211.96C209.648 230.197 220.133 237.457 235.032 242.067C241.31 244.01 244.732 244.388 256.032 244.388C271.406 244.388 279.425 242.516 291.032 236.221C299.628 231.558 304.169 227.844 318.74 213.557L330.949 201.587L350.74 220.68C361.626 231.181 390.78 260.052 415.528 284.837L460.524 329.902L256.028 329.864L51.532 329.826L115.794 265.864C151.139 230.685 180.397 201.902 180.813 201.902C181.229 201.902 186.061 206.428 191.551 211.96Z" fill="#434343"/>
</svg>
