<svg width="726" height="272" viewBox="0 0 726 272" fill="none" xmlns="http://www.w3.org/2000/svg">
<path fill-rule="evenodd" clip-rule="evenodd" d="M322.163 0.424023C253.655 4.91652 192.353 18.7588 156.744 37.7774C142.518 45.3748 129.992 55.3933 124.384 63.6602C109.14 86.127 119.279 109.562 152.35 128.304C187.916 148.459 239.465 161.28 308.557 167.155C327.342 168.752 395.655 168.996 413.107 167.528C480.655 161.846 528.482 150.723 564.92 132.219C578.56 125.292 584.979 120.849 593.282 112.588C599.41 106.492 600.997 104.415 603.643 99.0368C606.557 93.113 606.786 92.2185 607.041 85.7772C607.266 80.0906 607.039 78.0458 605.758 74.2105C598.058 51.1682 563.367 30.2159 510.314 16.5649C481.732 9.21048 446.335 3.68589 410.959 1.05833C397.452 0.0549044 334.632 -0.393772 322.163 0.424023ZM391.132 17.5999C429.355 20.7621 464.646 31.3992 487.7 46.7058C494.897 51.4843 504.597 61.3229 507.398 66.6848C515.671 82.5232 512.694 97.9638 498.709 111.748C482.867 127.364 452.996 140.036 416.688 146.545C389.037 151.502 351.953 152.193 322.163 148.307C264.582 140.796 221.836 118.476 214.777 92.2357C213.345 86.9125 213.751 78.46 215.711 72.8208C223.518 50.3525 257.575 30.9476 305.678 21.5598C331.444 16.5319 361.423 15.1422 391.132 17.5999ZM19.6115 201.518C14.8108 202.203 6.61077 204.161 4.93009 205.023C3.94402 205.529 2.49392 206.655 1.70765 207.524C0.342047 209.033 0.266857 210.291 0.0513114 235.013C-0.100501 252.471 0.0835358 261.797 0.617029 263.608C1.51502 266.657 4.28488 268.42 10.3023 269.773C25.3246 273.15 63.7289 272.573 74.4997 268.808C80.7835 266.611 80.4526 268.259 80.6839 237.947C80.9131 207.859 80.8336 207.272 76.2635 205.101C70.5053 202.366 64.0397 201.663 42.5267 201.433C31.1049 201.311 20.7931 201.349 19.6115 201.518ZM151.523 206.616C150.492 209.284 145.6 222.754 140.654 236.551C135.707 250.348 131.019 263.359 130.238 265.464C129.456 267.568 128.816 269.592 128.816 269.96C128.816 270.357 133.697 270.551 140.788 270.434L152.759 270.238L153.735 266.654C154.272 264.683 155.346 260.885 156.122 258.214L157.532 253.356L167.997 253.555L178.463 253.753L181.362 262.174L184.261 270.596H201.947H219.631L216.115 261.458C214.18 256.432 208.161 241.031 202.739 227.234L192.88 202.148L173.139 201.957L153.399 201.767L151.523 206.616ZM272.036 236.193V270.596H288.864H305.693L305.709 255.724L305.725 240.852L308.036 244.657C309.308 246.749 313.227 253.442 316.747 259.529L323.147 270.596H340.933H358.72L357.531 268.294C356.877 267.027 351.565 258.198 345.727 248.673C339.889 239.149 335.018 231.037 334.904 230.648C334.709 229.99 358.28 203.87 359.544 203.343C359.858 203.211 360.116 202.808 360.116 202.447C360.116 201.666 332.187 201.562 331.078 202.338C330.665 202.627 324.865 208.821 318.189 216.101L306.051 229.338L305.856 215.564L305.662 201.789H288.849H272.036V236.193ZM411.675 236.193V270.596H445.366H479.056L478.844 266.116L478.63 261.637L461.981 261.445L445.332 261.252V231.521V201.789H428.503H411.675V236.193ZM529.115 236.193V270.596H562.056H594.996V266.296V261.995H578.884H562.772V250.886V239.776H575.304H587.835V235.834V231.892H575.304H562.772V221.141V210.39H578.884H594.996V206.09V201.789H562.056H529.115V236.193ZM634.831 202.685C635.124 203.178 641.185 212.253 648.3 222.851C655.414 233.45 661.76 242.906 662.401 243.866C663.407 245.369 663.516 247.334 663.192 258.103L662.818 270.596H680.108H697.398V257.659V244.721L706.988 230.522C712.262 222.712 718.697 213.053 721.289 209.056L726 201.789H712.933H699.865L692.724 213.961C688.797 220.655 685.26 226.188 684.867 226.255C684.473 226.323 682.7 223.805 680.928 220.66C679.156 217.515 675.96 211.982 673.825 208.365L669.945 201.789H652.121C638.055 201.789 634.41 201.979 634.831 202.685ZM48.2032 208.913C49.1907 209.734 49.3282 213.09 49.3189 236.101C49.3124 250.54 49.0296 262.793 48.6894 263.33C47.4348 265.312 35.7116 265.909 32.8465 264.138C31.2889 263.174 31.0648 258.364 31.4271 233.705L31.7852 209.356L33.5754 208.406C35.8526 207.196 46.5848 207.569 48.2032 208.913ZM171.709 231.905C174.113 238.81 176.079 244.696 176.079 244.985C176.079 245.274 172.373 245.51 167.844 245.51C161.483 245.51 159.609 245.294 159.609 244.561C159.609 244.038 160.552 240.409 161.704 236.497C162.857 232.585 164.49 227.014 165.335 224.119C166.18 221.223 166.977 218.965 167.106 219.101C167.234 219.238 169.306 224.999 171.709 231.905Z" fill="black"/>
</svg>
