<svg width="828" height="828" viewBox="0 0 828 828" fill="none" xmlns="http://www.w3.org/2000/svg">
<path d="M0.500325 162.812L0.500323 162.811C0.472712 158.127 2.21311 151.832 5.43143 144.44C8.64441 137.059 13.3095 128.63 19.0828 119.69C30.6292 101.812 46.5869 81.9249 64.162 64.3499C81.7406 46.7713 101.08 30.7925 118.075 19.2121C126.573 13.4216 134.476 8.73656 141.273 5.50118C148.087 2.25781 153.732 0.5 157.732 0.5C159.68 0.5 162.097 1.19718 164.934 2.57627C167.765 3.95195 170.977 5.98799 174.506 8.62198C181.563 13.8897 189.847 21.5192 198.817 30.9499C216.755 49.8092 237.4 75.8312 256.416 104.459C273.363 129.985 286.113 149.321 295.259 164.899C304.406 180.48 309.926 192.265 312.438 202.691C317.447 223.488 310.521 238.976 296.061 268.66L266.566 329.174L266.412 329.491L266.658 329.743L380.365 445.821L494.09 561.918L494.34 562.173L494.663 562.019L557.191 532.186C588.037 517.478 603.886 510.373 624.838 515.321C635.339 517.801 647.148 523.317 662.773 532.496C678.396 541.674 697.798 554.49 723.485 571.546C752.131 590.572 778.167 611.226 797.036 629.171C806.471 638.145 814.104 646.431 819.375 653.491C822.01 657.021 824.047 660.234 825.423 663.065C826.803 665.903 827.5 668.32 827.5 670.267C827.5 675.336 825.656 681.607 822.296 688.73C818.94 695.844 814.093 703.766 808.133 712.124C796.213 728.839 779.869 747.26 762.19 764.388C744.511 781.515 725.512 797.336 708.286 808.857C699.672 814.617 691.512 819.297 684.188 822.528C676.856 825.762 670.401 827.527 665.188 827.5C641.13 827.373 612.708 819.93 581.368 806.59C550.033 793.253 515.811 774.035 480.158 750.389C408.854 703.098 331.864 638.118 260.873 567.127C189.882 496.136 124.902 419.146 77.6105 347.842C53.9648 312.189 34.7467 277.967 21.4097 246.632C8.07045 215.292 0.626888 186.87 0.500325 162.812Z" fill="#434343" stroke="black"/>
</svg>
