<svg width="190" height="190" viewBox="0 0 190 190" fill="none" xmlns="http://www.w3.org/2000/svg">
<path fill-rule="evenodd" clip-rule="evenodd" d="M78.6942 0.994096C63.7892 3.4701 47.2942 11.1311 34.4132 21.5601C2.22318 47.6231 -8.90182 93.2911 7.53118 131.908C16.4482 152.863 36.1912 173.125 55.5812 181.223L59.0812 182.684L59.1322 170.525C59.1802 159.215 59.5902 156.69 65.0012 134.366C70.5122 111.628 70.7592 110.074 69.6992 104.806C67.8692 95.7051 68.2962 88.0211 70.9482 82.3251C79.4022 64.1701 101.025 69.0811 98.1142 88.4951C97.7622 90.8441 95.9232 98.0371 94.0272 104.478C92.1322 110.919 90.5812 117.939 90.5812 120.077C90.5812 128.454 96.0222 133.305 105.215 133.125C122.172 132.794 134.578 112.858 133.381 87.8661C132.345 66.2331 116.661 51.8661 94.0812 51.8661C72.9962 51.8661 56.5482 65.2161 52.5562 85.5701C50.8932 94.0481 51.9992 101.434 56.1852 109.801L59.6422 116.712L57.9902 123.289C56.2182 130.345 55.4502 130.884 50.6802 128.417C44.4922 125.217 37.8782 114.943 35.0732 104.173C32.0432 92.5391 34.2302 75.9311 40.2922 64.5411C44.7142 56.2331 56.0492 45.4921 64.7102 41.4011C75.9072 36.1121 83.3262 34.5281 96.5812 34.5941C114.758 34.6841 128.527 39.9961 139.993 51.3421C150.811 62.0471 155.777 74.4781 155.7 90.6561C155.6 111.372 147.417 129.534 133.427 140.091C117.561 152.063 96.9042 152.716 86.5232 141.573C85.0482 139.991 84.5392 139.857 84.1792 140.959C83.9262 141.733 82.1072 148.163 80.1372 155.247C78.0052 162.913 74.7512 171.602 72.1002 176.708C69.0352 182.613 68.0042 185.509 68.7952 185.998C71.7382 187.817 84.2332 189.361 95.5812 189.307C111.331 189.233 122.162 186.72 136.219 179.876C163.422 166.631 181.55 143.087 187.81 112.871C191.569 94.7271 188.954 72.1991 181.12 55.2451C168.562 28.0631 143.096 7.7381 114.099 1.7541C104.433 -0.241904 88.2292 -0.588904 78.6942 0.994096Z" fill="#434343"/>
</svg>
