<svg width="548" height="86" viewBox="0 0 548 86" fill="none" xmlns="http://www.w3.org/2000/svg">
<path fill-rule="evenodd" clip-rule="evenodd" d="M339.139 1.72379C339.139 3.25879 339.529 3.50041 342.711 3.93435C344.676 4.20205 346.755 4.88818 347.331 5.45949C348.228 6.3478 348.379 11.7777 348.379 42.9926C348.379 71.7109 348.186 79.6466 347.473 80.2327C346.975 80.6427 344.896 81.1978 342.853 81.4669C339.543 81.9015 339.139 82.1389 339.139 83.6464V85.3385L369.96 85.1413L400.78 84.9433L408.33 81.2231C417.629 76.6414 424.131 70.6845 428.107 63.1054C432.068 55.5558 432.963 51.6897 432.963 42.1444C432.963 32.9803 431.577 27.3327 427.559 20.1339C424.681 14.9787 417.069 7.86448 411.618 5.23759C401.192 0.213448 403.004 0.430418 369.525 0.204994L339.139 0V1.72379ZM111.933 5.95049L116.661 11.1867V43.6731V76.1602L113.462 80.5166C111.703 82.9124 110.264 85.1265 110.264 85.4364C110.264 85.7464 119.38 86 130.521 86C141.663 86 150.779 85.7485 150.779 85.4414C150.779 85.1335 149.208 83.0413 147.288 80.7913L143.798 76.6998L143.32 69.5504C143.057 65.6181 142.948 60.9145 143.078 59.0977L143.316 55.7946L161.796 70.8945L180.277 85.9944L196.616 85.8211C210.508 85.6738 212.978 85.4893 213.107 84.5911C213.196 83.9768 207.096 78.4532 198.545 71.4038L183.831 59.2732L171.392 59.2252L158.953 59.1781L156.11 56.7491L153.267 54.3209L166.499 54.3103L179.73 54.2997L184.632 51.8694C193.736 47.3553 198.762 41.5907 200.958 33.143C203.904 21.8154 197.94 8.56893 187.385 2.9918L183.831 1.11374L145.518 0.914375L107.204 0.714313L111.933 5.95049ZM243.893 1.83932C243.893 2.44656 244.881 3.35459 246.088 3.85757C248.935 5.04386 260.241 19.1103 260.241 21.4667C260.241 22.391 253.796 36.1623 245.919 52.0694L231.597 80.9928L228.149 81.8684C225.62 82.5109 224.701 83.0843 224.701 84.0198C224.701 85.1828 225.482 85.2955 233.51 85.2955C243.148 85.2955 244.601 84.6594 241.357 81.8628L239.638 80.382L241.31 76.6752C242.229 74.6358 244.216 70.5113 245.725 67.5082L248.47 62.0487H262.43C270.108 62.0487 277.817 61.855 279.56 61.6183L282.729 61.1879L287.769 68.8495C290.542 73.0628 293.023 77.6375 293.284 79.014C293.746 81.4563 293.687 81.5387 290.89 82.3693C288.825 82.9821 288.135 83.5147 288.427 84.2692C289.033 85.833 329.543 85.478 329.543 83.9085C329.543 83.3097 328.046 82.3277 325.989 81.5761C324.035 80.8624 321.999 79.8537 321.465 79.3345C320.931 78.8153 310.696 61.0033 298.72 39.7521L276.945 1.11374L260.419 0.924943C245.809 0.757284 243.893 0.863656 243.893 1.83932ZM462.58 1.23138C461.624 2.17816 462.165 2.89106 464.756 4.10201C466.542 4.93679 469.325 7.75036 473.3 12.7372C478.323 19.0392 479.149 20.4467 478.878 22.2472C478.704 23.4096 472.221 37.1182 464.47 52.7112L450.378 81.0625L446.673 82.134C443.931 82.9279 443.074 83.4774 443.373 84.2508C443.7 85.0962 445.456 85.2955 452.586 85.2955C462.019 85.2955 462.693 84.9947 459.892 82.0389L458.388 80.4525L462.659 71.427L466.93 62.4009L484.427 62.2128L501.924 62.024L506.899 69.6096C510.948 75.7819 511.84 77.6459 511.69 79.6191C511.532 81.705 511.183 82.1262 509.196 82.6334C507.906 82.9624 506.886 83.6802 506.886 84.2593C506.886 85.1476 509.834 85.2955 527.551 85.2955C546.628 85.2955 548.198 85.2033 547.983 84.0966C547.845 83.3865 546.168 82.2988 543.871 81.4295L539.99 79.9622L525.713 54.6273C517.859 40.6926 507.821 22.8728 503.404 15.0266L495.373 0.76151H479.213C470.326 0.76151 462.84 0.972845 462.58 1.23138ZM0.157128 2.69875C0.680271 3.37643 2.79843 5.7307 4.8647 7.93L8.62053 11.9285V43.8964V75.8651L5.01823 80.9322L1.41594 86H22.1213H42.8274L38.874 81.3809L34.9198 76.7618L34.9134 69.5814C34.9106 65.6322 34.7073 60.7518 34.4635 58.7357L34.0193 55.0711L52.7906 54.8612L71.5619 54.652L76.2808 52.3477C82.941 49.0967 87.704 44.6121 90.5173 38.9441C92.6753 34.5984 92.8458 33.7467 92.7996 27.5433C92.762 22.4234 92.3867 19.9226 91.2139 16.9639C89.0616 11.5354 84.1749 6.25904 78.8639 3.62862L74.4975 1.46596H36.8518C1.1103 1.46596 -0.745578 1.52866 0.157128 2.69875ZM169.189 8.12231C175.013 11.1071 177.798 17.6169 177.773 28.1872C177.755 36.306 176.687 39.0653 171.691 43.9091L168.24 47.2552H154.889H141.539V27.1784V7.10156H154.368C164.181 7.10156 167.666 7.34178 169.189 8.12231ZM61.7672 9.21632C67.182 12.4885 70.4417 22.0232 69.4437 31.6728C68.8431 37.488 66.3276 42.1797 62.001 45.5561L58.7314 48.1076L53.045 47.6857C49.9176 47.4539 44.0805 47.2616 40.0731 47.2595L32.7875 47.2552V27.5306V7.80601L46.1148 7.80883C58.1755 7.81094 59.6632 7.94479 61.7672 9.21632ZM389.601 8.57527C393.667 9.43963 398.365 12.6477 400.792 16.2171C402.384 18.558 402.399 18.8187 402.399 42.6819V66.7833L400.556 69.5229C398.304 72.8712 396.664 74.2526 392.201 76.5618C388.456 78.4997 381.022 79.4986 376.544 78.666L373.968 78.1869V42.9968V7.80601H379.975C383.278 7.80601 387.61 8.1519 389.601 8.57527ZM272.153 43.0285L278.481 53.9475L265.705 54.1398C258.678 54.2455 252.79 54.1948 252.621 54.0264C252.451 53.8587 255.123 48.6233 258.558 42.3931C261.992 36.163 265.033 31.3008 265.314 31.5875C265.595 31.875 268.672 37.0231 272.153 43.0285ZM490.477 42.5706C494.029 48.712 496.935 53.8637 496.935 54.018C496.935 54.1729 491.047 54.2997 483.85 54.2997H470.766L477.193 42.6531C480.728 36.2475 483.71 31.0965 483.82 31.2057C483.93 31.3156 486.926 36.4299 490.477 42.5706Z" fill="black"/>
</svg>
