<svg width="798" height="333" viewBox="0 0 798 333" fill="none" xmlns="http://www.w3.org/2000/svg">
<path fill-rule="evenodd" clip-rule="evenodd" d="M171.528 0.174026C120.7 3.18103 67.1849 13.857 28.0279 28.802C15.9129 33.426 12.2909 36.354 8.6489 44.471C4.2979 54.167 -1.6521 79.561 0.427904 79.561C0.774904 79.561 6.3389 76.918 12.7929 73.688C58.8799 50.623 109.902 33.085 151.244 26.098C169.537 23.007 193.309 21.16 203.461 22.041C228.719 24.235 241.149 35.615 242.715 57.982C244.476 83.128 225.948 109.394 189.028 134.089C175.657 143.032 156.251 153.561 153.137 153.561C152.095 153.561 151.016 152.972 150.739 152.251C150.463 151.531 156.031 126.048 163.112 95.623C170.194 65.199 175.746 39.913 175.449 39.433C175.153 38.954 172.604 38.561 169.787 38.561C163.526 38.561 146.777 40.574 145.869 41.436C145.507 41.78 138.809 69.061 130.986 102.061C123.163 135.061 116.35 162.583 115.846 163.222C114.624 164.772 93.2749 173.416 79.3519 177.999C73.2059 180.022 67.6169 182.352 66.9319 183.176C65.4499 184.963 64.3929 183.883 86.7779 203.459C95.7159 211.276 103.028 218.361 103.028 219.205C103.028 220.049 100.103 232.912 96.5279 247.789C92.9529 262.666 90.0279 275.516 90.0279 276.345C90.0279 277.596 91.1899 277.754 96.8939 277.275C108.011 276.343 116.381 271.785 119.888 264.753C120.9 262.722 122.724 257.011 123.94 252.061C126.318 242.384 128.355 238.254 130.503 238.75C131.245 238.921 147.03 251.436 165.581 266.561C208.145 301.265 205.9 299.561 209.065 299.561C212.595 299.561 220.103 292.94 222.433 287.772C224.067 284.149 224.085 283.572 222.658 280.812C221.755 279.066 204.204 263.795 180.846 244.432C158.706 226.078 139.79 210.386 138.81 209.561C137.116 208.134 137.254 207.207 141.645 190.561L146.26 173.061L167.894 162.384C199.899 146.589 219.401 133.254 236.555 115.437C249.81 101.669 258.072 88.188 261.673 74.448C263.696 66.731 263.906 51.281 262.092 43.561C256.815 21.102 239.332 6.88203 211.143 2.12103C202.039 0.583026 181.593 -0.421974 171.528 0.174026ZM551.688 2.54803C522.17 7.87103 489.87 29.375 478.164 51.497C476.364 54.899 471.516 70.463 465.686 91.561C460.442 110.536 449.993 148.111 442.465 175.061C434.938 202.011 428.722 224.736 428.653 225.561C428.442 228.093 443.414 227.519 448.652 224.794C453.088 222.486 457.594 217.737 459.256 213.617C459.823 212.211 468.038 180.206 477.511 142.494C495.89 69.329 498.706 60.369 508.598 43.562C517.598 28.269 531.543 16.336 542.913 14.194C557.33 11.479 567.308 27.605 562.943 46.561C559.244 62.619 545.851 77.346 515.684 98.525C501.72 108.329 492.876 116.253 490.64 120.966C487.705 127.151 488.485 130.365 496.893 146.742C501.219 155.168 505.944 165.35 507.393 169.371C514.374 188.738 508.76 196.32 465.169 226.396C442.283 242.186 434.11 251.796 435.411 261.386C436.266 267.687 439.803 278.13 441.583 279.607C443.256 280.995 439.067 283.992 491.028 244.237C530.817 213.794 533.968 211.132 537.718 204.789C539.935 201.04 540.199 199.616 539.873 193.172C539.382 183.44 535.475 175.816 520.853 156.061C509.124 140.214 504.472 131.89 505.511 128.614C506.708 124.844 516.242 117.601 531.328 109.001C555.074 95.463 565.632 88.107 575.626 78.137C590.322 63.477 595.766 49.435 593.187 32.843C589.791 11.002 572.956 -1.28697 551.688 2.54803ZM755.165 141.65C738.259 150.098 733.885 172.029 746.295 186.127C752.514 193.192 757.886 195.826 767.177 196.363C774.492 196.787 775.527 196.59 781.547 193.626C803.177 182.978 803.319 151.858 781.787 141.128C777.607 139.045 775.194 138.561 768.991 138.561C762.45 138.561 760.456 139.007 755.165 141.65ZM778.528 144.432C783.62 146.758 790.372 154.08 792.096 159.145C794.103 165.043 793.711 173.336 791.192 178.255C782.814 194.617 762.085 197.328 749.75 183.675C738.5 171.223 743.105 151.85 759.028 144.642C764.738 142.057 773.131 141.967 778.528 144.432ZM757.185 162.311C752.811 176.712 752.443 178.561 753.946 178.561C754.451 178.561 755.542 178.821 756.371 179.139C757.498 179.571 758.319 178.313 759.635 174.139C760.821 170.376 761.922 168.561 763.019 168.561C766.234 168.561 767.786 170.995 768.349 176.916C768.655 180.137 769.046 182.913 769.219 183.085C769.391 183.257 770.8 183.717 772.349 184.105C775.143 184.807 775.161 184.781 774.55 180.937C772.78 169.794 772.692 170.574 775.838 169.477C781.219 167.602 782.845 159.287 778.652 155.094C776.728 153.171 765.042 148.561 762.089 148.561C761.689 148.561 759.482 154.749 757.185 162.311ZM770.35 157.155C774.133 158.444 775.028 159.197 775.028 161.088C775.028 162.531 774.279 163.664 773.072 164.047C770.846 164.753 764.249 163.727 763.529 162.563C763.114 161.891 764.848 155.561 765.448 155.561C765.571 155.561 767.777 156.278 770.35 157.155ZM339.578 168.622C337.155 170.855 331.5 178.039 327.011 184.586C315.18 201.84 308.862 206.857 305.91 201.34C305.256 200.119 304.349 193.032 303.893 185.592C303.046 171.747 301.973 167.138 299.364 166.136C295.838 164.783 291.803 169.322 282.094 185.561C271.542 203.211 265.794 208.723 259.568 207.16C255.708 206.192 254.368 201.997 253.239 187.352C252.514 177.943 251.76 173.788 250.334 171.352L248.408 168.061L234.968 168.158C219.723 168.269 214.179 169.699 204.76 175.951C193.852 183.191 182.158 197.359 178.019 208.349C172.993 221.695 178.377 232.549 190.028 232.556C196.012 232.56 204.242 228.556 215.389 220.216C222.157 215.153 224.638 213.802 225.889 214.502C226.791 215.005 229.103 217.997 231.028 221.151C235.141 227.889 238.19 230.389 243.311 231.219C249.646 232.248 255.532 229.212 264.317 220.386C268.601 216.082 272.568 212.561 273.133 212.561C276.146 212.561 278.1 215.087 279.987 221.424C281.106 225.181 283.052 229.784 284.31 231.652C288.344 237.638 291.986 236.984 301.528 228.561C307.784 223.039 312.317 220.517 313.629 221.828C313.908 222.108 309.773 240.049 304.441 261.699C289.037 324.234 288.311 327.4 289.081 328.647C290.241 330.523 308.27 333.658 309.676 332.228C310.783 331.101 350.052 170.749 350.036 167.418C350.028 165.763 348.088 164.561 345.424 164.561C344.632 164.561 342.001 166.388 339.578 168.622ZM382.731 167.003C376.246 169.316 371.391 173.18 369.149 177.811C366.575 183.127 366.486 185.835 368.759 189.682C374.268 199.009 396.945 200.586 405.859 192.263C409.48 188.883 411.028 185.134 411.028 179.746C411.028 173.925 408.758 170.484 402.973 167.533C398.382 165.191 388.534 164.933 382.731 167.003ZM666.528 168.416C662.768 170.731 656.621 177.356 646.908 189.561C634.679 204.928 627.39 210.553 625.635 205.979C625.301 205.109 625.028 197.334 625.028 188.702C625.028 170.628 624.354 168.561 618.458 168.561C616.556 168.561 614.147 169.094 613.103 169.746C611.641 170.659 610.299 170.659 607.251 169.746C605.076 169.094 600.648 168.566 597.412 168.573C582.34 168.603 569.713 175.541 559.104 189.621C552.407 198.508 545.274 212.147 544.37 217.794C543.048 226.045 548.142 230.561 558.769 230.561C565.9 230.561 573.374 227.171 582.415 219.837C594.689 209.88 596.005 209.057 597.827 210.195C598.799 210.802 600.255 214.215 601.223 218.155C603.233 226.334 605.421 228.561 611.448 228.561C616.091 228.561 622.571 225.134 631.944 217.723C643.439 208.634 645.583 208.732 646.561 218.391C647.385 226.531 649.087 229.57 652.801 229.536C656.815 229.499 662.95 224.278 671.572 213.561C681.188 201.608 684.834 197.754 688.191 195.995C690.545 194.761 691.106 194.803 693.026 196.358C694.889 197.867 695.318 199.633 696.053 208.81C697.029 221.002 699.091 226.753 703.953 230.844C709.902 235.85 717.077 234.028 728.778 224.539C735.617 218.993 736.672 216.561 732.24 216.561C728.258 216.561 720.753 212.502 719.298 209.561C718.444 207.836 718.111 201.949 718.221 190.561C718.339 178.422 718.027 173.4 717.041 171.561C712.373 162.852 704.747 165.209 689.728 180.005C679.658 189.925 678.562 189.807 678.428 178.789C678.35 172.348 677.934 170.115 676.523 168.556C674.269 166.064 670.434 166.011 666.528 168.416ZM599.492 187.521C600.716 188.873 601.063 190.286 600.613 192.08C598.989 198.549 582.328 211.921 576.59 211.36C573.936 211.101 573.486 210.625 573.213 207.785C572.671 202.155 578.412 195.078 588.939 188.402C594.205 185.063 597.052 184.825 599.492 187.521ZM228.318 189.736L230.306 192.411L227.695 196.867C222.112 206.394 206.725 218.81 202.508 217.192C200.512 216.426 200.589 210.332 202.644 206.261C207.79 196.074 218.643 186.136 223.929 186.772C225.25 186.931 227.225 188.265 228.318 189.736Z" fill="black"/>
</svg>
