<svg width="595" height="97" viewBox="0 0 595 97" fill="none" xmlns="http://www.w3.org/2000/svg">
<path fill-rule="evenodd" clip-rule="evenodd" d="M380.264 1.84814C366.822 6.53331 356.718 17.1676 352.209 31.3733C348.309 43.6613 349.469 59.6935 355.047 70.6099C360.543 81.364 372.59 90.98 383.936 93.6676C405.664 98.8155 427.23 86.1967 435.311 63.606C437.633 57.1161 438.47 43.3913 436.968 36.4552C433.976 22.641 423.693 9.51438 411.214 3.58088C404.824 0.542517 403.718 0.298577 395.228 0.0633207C387.476 -0.151101 385.231 0.116275 380.264 1.84814ZM532.682 2.24574L516.822 2.50269L517.047 46.974L517.272 91.4444L536.816 91.6866C547.694 91.8212 559.032 91.5182 562.386 91.0026C578.316 88.5536 589.254 78.0964 593.671 61.0955C595.264 54.9588 595.471 38.5647 594.041 31.8047C589.9 12.2446 575.757 1.22311 555.526 1.79172C551.685 1.89936 541.405 2.10337 532.682 2.24574ZM96.2429 4.13994C81.8861 8.72701 70.4592 21.1791 65.9154 37.1878C65.2978 39.3616 64.8314 45.3298 64.8635 50.6435C64.9113 58.6023 65.2831 61.1675 67.095 66.0454C71.9933 79.2276 79.7536 88.0727 91.2066 93.5279C97.1758 96.37 98.497 96.6574 106.987 96.9525C120.456 97.4205 128.395 94.4863 137.871 85.5387C160.553 64.1225 156.922 25.0049 130.729 8.59506C121.134 2.58343 106.877 0.74131 96.2429 4.13994ZM439.075 3.50362C438.837 4.12518 438.744 24.1663 438.869 48.0392L439.094 91.4444H449.084H459.073L459.308 73.788L459.544 56.1308L472.813 56.4259C491.605 56.8426 492.903 57.9581 494.283 74.8749C494.723 80.2658 495.581 86.2002 496.19 88.0606L497.297 91.4444L506.738 91.6918C515.502 91.9219 516.134 91.8281 515.565 90.3897C514.61 87.9781 513.502 80.989 512.531 71.2523C512.041 66.3544 511.032 60.8854 510.287 59.0988C508.769 55.4641 504.069 50.2094 502.335 50.2094C500.193 50.2094 501.289 48.9047 504.933 47.1138C507.358 45.9219 509.441 43.9322 511.142 41.1811C513.349 37.615 513.754 35.9838 514.069 29.4044C514.284 24.8894 514.019 20.5133 513.421 18.6998C511.792 13.7681 506.279 8.24694 500.166 5.42647L494.687 2.89768L467.098 2.63551C445.052 2.4263 439.422 2.60079 439.075 3.50362ZM290.703 4.77887C290.384 5.0966 290.124 25.0196 290.124 49.0522V92.7466H299.896L309.668 92.7475V74.2993V55.8521L328.126 55.6177L346.585 55.3833V48.0392V40.695L328.126 40.4606L309.668 40.2262V30.243V20.2598L332.47 20.028L355.271 19.7971V11.998V4.19984H323.277C305.679 4.19984 291.021 4.46028 290.703 4.77887ZM153.958 49.1026L154.183 93.1806L163.509 93.4272L172.836 93.6728L173.064 63.1911L173.292 32.7084L181.484 55.1316C185.988 67.4647 190.921 81.0706 192.443 85.3677L195.212 93.1806L202.528 93.4289L209.845 93.6772L213.01 84.7479C214.751 79.837 219.817 65.4664 224.267 52.8137L232.36 29.8089L232.587 61.7118L232.816 93.6147H241.056H249.298V49.3413V5.06795H235.952H222.607L221.252 8.75739C220.508 10.787 216.117 23.9709 211.495 38.0559C206.872 52.141 202.942 63.8187 202.761 64.0062C202.58 64.1937 202.247 63.8031 202.018 63.1381C201.104 60.4661 188.872 25.669 185.42 15.9193L181.732 5.502L167.732 5.26328L153.733 5.02454L153.958 49.1026ZM0 13.7247V21.5133L11.9437 21.7547L23.8874 21.996L24.1141 57.8053L24.3409 93.6147H34.311H44.2812L44.5079 57.8053L44.7347 21.996L57.547 21.7555L70.3594 21.5159V13.7256V5.93605H35.1797H0V13.7247ZM402.462 19.3787C407.857 21.937 412.418 26.6195 415.388 32.6485C418.046 38.0447 418.247 39.0673 418.247 47.1711C418.247 55.2722 418.045 56.2983 415.392 61.684C402.365 88.13 369.083 77.7041 369.083 47.1771C369.083 37.2851 371.414 31.3333 377.785 24.9667C380.741 22.0125 384.171 19.5531 386.546 18.6842C391.171 16.9922 398.064 17.2926 402.462 19.3787ZM488.485 19.2849C493.687 21.4578 495.929 30.6293 492.981 37.6809C490.959 42.518 487.817 43.354 472.727 43.071L459.942 42.8305L459.701 30.46L459.46 18.0895H472.541C481.684 18.0895 486.484 18.4498 488.485 19.2849ZM561.978 21.1131C564.318 22.299 567.47 24.5448 568.981 26.1047C578.778 36.219 579.062 58.6839 569.526 69.2053C565.628 73.5059 561.74 74.4764 548.325 74.4973L535.947 74.5164V46.737V18.9576H546.834C556.705 18.9576 558.118 19.159 561.978 21.1131ZM119.299 23.1089C124.261 25.8078 127.611 29.6136 130.891 36.2781C132.986 40.5335 133.265 42.1057 133.288 49.7754C133.311 57.8323 133.109 58.8731 130.485 64.2562C123.885 77.7935 110.736 83.0898 98.6742 77.0703C93.4294 74.4521 89.9236 70.4727 86.5906 63.3551C84.2957 58.4547 83.9726 56.82 84.003 50.2919C84.049 40.7306 86.4126 34.1825 91.9579 28.2576C98.0592 21.7399 103.174 19.5896 110.738 20.3648C113.12 20.6079 116.972 21.8432 119.299 23.1089Z" fill="black"/>
</svg>
