<?xml version="1.0" encoding="utf-8"?>
<!-- Generator: Adobe Illustrator 26.5.2, SVG Export Plug-In . SVG Version: 6.00 Build 0)  -->
<svg version="1.1" id="Layer_1" xmlns="http://www.w3.org/2000/svg" xmlns:xlink="http://www.w3.org/1999/xlink" x="0px" y="0px"
	 viewBox="0 0 1989.1 282.05" style="enable-background:new 0 0 1989.1 282.05;" xml:space="preserve">
<style type="text/css">
	.st0{fill:#191919;}
	.st1{fill:#00B67A;}
	.st2{fill:#005128;}
	.st3{fill:#FFFFFF;}
</style>
<g id="Type">
	<g>
		<path class="st0" d="M1146.61,102.45h114.7v21.4h-45.1v120.3h-24.8v-120.3h-44.9v-21.4H1146.61z M1256.41,141.55h21.2v19.8h0.4
			c0.7-2.8,2-5.5,3.9-8.1s4.2-5.1,6.9-7.2c2.7-2.2,5.7-3.9,9-5.3c3.3-1.3,6.7-2,10.1-2c2.6,0,4.5,0.1,5.5,0.2c1,0.1,2,0.3,3.1,0.4
			v21.8c-1.6-0.3-3.2-0.5-4.9-0.7c-1.7-0.2-3.3-0.3-4.9-0.3c-3.8,0-7.4,0.8-10.8,2.3s-6.3,3.8-8.8,6.7c-2.5,3-4.5,6.6-6,11
			s-2.2,9.4-2.2,15.1v48.8h-22.6v-102.5H1256.41z M1420.41,244.15h-22.2v-14.3h-0.4c-2.8,5.2-6.9,9.3-12.4,12.4
			c-5.5,3.1-11.1,4.7-16.8,4.7c-13.5,0-23.3-3.3-29.3-10s-9-16.8-9-30.3v-65.1h22.6v62.9c0,9,1.7,15.4,5.2,19.1
			c3.4,3.7,8.3,5.6,14.5,5.6c4.8,0,8.7-0.7,11.9-2.2c3.2-1.5,5.8-3.4,7.7-5.9c2-2.4,3.4-5.4,4.3-8.8c0.9-3.4,1.3-7.1,1.3-11.1v-59.5
			h22.6V244.15z M1458.91,211.25c0.7,6.6,3.2,11.2,7.5,13.9c4.4,2.6,9.6,4,15.7,4c2.1,0,4.5-0.2,7.2-0.5c2.7-0.3,5.3-1,7.6-1.9
			c2.4-0.9,4.3-2.3,5.9-4.1c1.5-1.8,2.2-4.1,2.1-7s-1.2-5.3-3.2-7.1c-2-1.9-4.5-3.3-7.6-4.5c-3.1-1.1-6.6-2.1-10.6-2.9
			c-4-0.8-8-1.7-12.1-2.6c-4.2-0.9-8.3-2.1-12.2-3.4c-3.9-1.3-7.4-3.1-10.5-5.4c-3.1-2.2-5.6-5.1-7.4-8.6c-1.9-3.5-2.8-7.8-2.8-13
			c0-5.6,1.4-10.2,4.1-14c2.7-3.8,6.2-6.8,10.3-9.1c4.2-2.3,8.8-3.9,13.9-4.9c5.1-0.9,10-1.4,14.6-1.4c5.3,0,10.4,0.6,15.2,1.7
			c4.8,1.1,9.2,2.9,13.1,5.5c3.9,2.5,7.1,5.8,9.7,9.8c2.6,4,4.2,8.9,4.9,14.6h-23.6c-1.1-5.4-3.5-9.1-7.4-10.9
			c-3.9-1.9-8.4-2.8-13.4-2.8c-1.6,0-3.5,0.1-5.7,0.4c-2.2,0.3-4.2,0.8-6.2,1.5c-1.9,0.7-3.5,1.8-4.9,3.2c-1.3,1.4-2,3.2-2,5.5
			c0,2.8,1,5,2.9,6.7s4.4,3.1,7.5,4.3c3.1,1.1,6.6,2.1,10.6,2.9c4,0.8,8.1,1.7,12.3,2.6c4.1,0.9,8.1,2.1,12.1,3.4
			c4,1.3,7.5,3.1,10.6,5.4c3.1,2.3,5.6,5.1,7.5,8.5s2.9,7.7,2.9,12.7c0,6.1-1.4,11.2-4.2,15.5c-2.8,4.2-6.4,7.7-10.8,10.3
			s-9.4,4.6-14.8,5.8c-5.4,1.2-10.8,1.8-16.1,1.8c-6.5,0-12.5-0.7-18-2.2s-10.3-3.7-14.3-6.6c-4-3-7.2-6.7-9.5-11.1
			c-2.3-4.4-3.5-9.7-3.7-15.8h22.8V211.25z M1533.51,141.55h17.1v-30.8h22.6v30.8h20.4v16.9h-20.4v54.8c0,2.4,0.1,4.4,0.3,6.2
			c0.2,1.7,0.7,3.2,1.4,4.4c0.7,1.2,1.8,2.1,3.3,2.7c1.5,0.6,3.4,0.9,6,0.9c1.6,0,3.2,0,4.8-0.1s3.2-0.3,4.8-0.7v17.5
			c-2.5,0.3-5,0.5-7.3,0.8c-2.4,0.3-4.8,0.4-7.3,0.4c-6,0-10.8-0.6-14.4-1.7c-3.6-1.1-6.5-2.8-8.5-5c-2.1-2.2-3.4-4.9-4.2-8.2
			c-0.7-3.3-1.2-7.1-1.3-11.3v-60.5h-17.1v-17.1H1533.51z M1609.61,141.55h21.4v13.9h0.4c3.2-6,7.6-10.2,13.3-12.8
			c5.7-2.6,11.8-3.9,18.5-3.9c8.1,0,15.1,1.4,21.1,4.3c6,2.8,11,6.7,15,11.7s6.9,10.8,8.9,17.4c2,6.6,3,13.7,3,21.2
			c0,6.9-0.9,13.6-2.7,20c-1.8,6.5-4.5,12.2-8.1,17.2s-8.2,8.9-13.8,11.9s-12.1,4.5-19.7,4.5c-3.3,0-6.6-0.3-9.9-0.9
			c-3.3-0.6-6.5-1.6-9.5-2.9c-3-1.3-5.9-3-8.4-5.1c-2.6-2.1-4.7-4.5-6.5-7.2h-0.4v51.2h-22.6V141.55z M1688.61,192.95
			c0-4.6-0.6-9.1-1.8-13.5c-1.2-4.4-3-8.2-5.4-11.6c-2.4-3.4-5.4-6.1-8.9-8.1c-3.6-2-7.7-3.1-12.3-3.1c-9.5,0-16.7,3.3-21.5,9.9
			c-4.8,6.6-7.2,15.4-7.2,26.4c0,5.2,0.6,10,1.9,14.4c1.3,4.4,3.1,8.2,5.7,11.4c2.5,3.2,5.5,5.7,9,7.5c3.5,1.9,7.6,2.8,12.2,2.8
			c5.2,0,9.5-1.1,13.1-3.2c3.6-2.1,6.5-4.9,8.8-8.2c2.3-3.4,4-7.2,5-11.5C1688.11,201.85,1688.61,197.45,1688.61,192.95z
			 M1728.51,102.45h22.6v21.4h-22.6V102.45z M1728.51,141.55h22.6v102.6h-22.6V141.55z M1771.31,102.45h22.6v141.7h-22.6V102.45z
			 M1863.21,246.95c-8.2,0-15.5-1.4-21.9-4.1c-6.4-2.7-11.8-6.5-16.3-11.2c-4.4-4.8-7.8-10.5-10.1-17.1c-2.3-6.6-3.5-13.9-3.5-21.8
			c0-7.8,1.2-15,3.5-21.6c2.3-6.6,5.7-12.3,10.1-17.1s9.9-8.5,16.3-11.2c6.4-2.7,13.7-4.1,21.9-4.1c8.2,0,15.5,1.4,21.9,4.1
			c6.4,2.7,11.8,6.5,16.3,11.2c4.4,4.8,7.8,10.5,10.1,17.1c2.3,6.6,3.5,13.8,3.5,21.6c0,7.9-1.2,15.2-3.5,21.8s-5.7,12.3-10.1,17.1
			s-9.9,8.5-16.3,11.2C1878.71,245.55,1871.41,246.95,1863.21,246.95z M1863.21,229.05c5,0,9.4-1.1,13.1-3.2
			c3.7-2.1,6.7-4.9,9.1-8.3c2.4-3.4,4.1-7.3,5.3-11.6c1.1-4.3,1.7-8.7,1.7-13.2c0-4.4-0.6-8.7-1.7-13.1c-1.1-4.4-2.9-8.2-5.3-11.6
			c-2.4-3.4-5.4-6.1-9.1-8.2c-3.7-2.1-8.1-3.2-13.1-3.2s-9.4,1.1-13.1,3.2c-3.7,2.1-6.7,4.9-9.1,8.2c-2.4,3.4-4.1,7.2-5.3,11.6
			c-1.1,4.4-1.7,8.7-1.7,13.1c0,4.5,0.6,8.9,1.7,13.2s2.9,8.2,5.3,11.6c2.4,3.4,5.4,6.2,9.1,8.3
			C1853.81,228.05,1858.21,229.05,1863.21,229.05z M1921.61,141.55h17.1v-30.8h22.6v30.8h20.4v16.9h-20.4v54.8
			c0,2.4,0.1,4.4,0.3,6.2c0.2,1.7,0.7,3.2,1.4,4.4c0.7,1.2,1.8,2.1,3.3,2.7c1.5,0.6,3.4,0.9,6,0.9c1.6,0,3.2,0,4.8-0.1
			c1.6-0.1,3.2-0.3,4.8-0.7v17.5c-2.5,0.3-5,0.5-7.3,0.8c-2.4,0.3-4.8,0.4-7.3,0.4c-6,0-10.8-0.6-14.4-1.7c-3.6-1.1-6.5-2.8-8.5-5
			c-2.1-2.2-3.4-4.9-4.2-8.2c-0.7-3.3-1.2-7.1-1.3-11.3v-60.5h-17.1v-17.1H1921.61z"/>
	</g>
</g>
<g id="Star">
	<polygon class="st1" points="1120.21,102.45 1016.61,102.45 984.61,3.85 952.51,102.45 848.91,102.35 932.81,163.35 900.71,261.85 
		984.61,200.95 1068.41,261.85 1036.41,163.35 1120.21,102.45 1120.21,102.45 	"/>
	<polygon class="st2" points="1043.61,185.65 1036.41,163.35 984.61,200.95 	"/>
</g>
<g id="Trustpilot_ratings_5star-RGB">
	<g>
		<g>
			<rect id="Rectangle-path" x="4.55" y="80.63" class="st1" width="152.05" height="152.05"/>
			
				<rect id="Rectangle-path_00000054247093429779581790000016523927771540373130_" x="169.27" y="80.63" class="st1" width="152.05" height="152.05"/>
			
				<rect id="Rectangle-path_00000053539382812997170690000000191821370090362548_" x="333.99" y="80.63" class="st1" width="152.05" height="152.05"/>
			
				<rect id="Rectangle-path_00000030465732639942940280000004015365928236912808_" x="498.72" y="80.63" class="st1" width="152.05" height="152.05"/>
			
				<rect id="Rectangle-path_00000046311727779400101960000007439349771059547308_" x="663.44" y="80.63" class="st1" width="152.05" height="152.05"/>
			<path id="Shape" class="st3" d="M80.57,183.1l23.12-5.86l9.66,29.78L80.57,183.1z M133.79,144.62H93.09l-12.51-38.33
				l-12.51,38.33H27.36l32.94,23.76L47.79,206.7l32.94-23.76l20.27-14.57L133.79,144.62L133.79,144.62L133.79,144.62L133.79,144.62z
				"/>
			<path id="Shape_00000124878518388868692780000014994792812519260571_" class="st3" d="M245.3,183.1l23.12-5.86l9.66,29.78
				L245.3,183.1z M298.52,144.62h-40.71l-12.51-38.33l-12.51,38.33h-40.71l32.94,23.76l-12.51,38.33l32.94-23.76l20.27-14.57
				L298.52,144.62L298.52,144.62L298.52,144.62L298.52,144.62z"/>
			<path id="Shape_00000029743618123090425350000001296699191360740026_" class="st3" d="M410.02,183.1l23.12-5.86l9.66,29.78
				L410.02,183.1z M463.24,144.62h-40.71l-12.51-38.33l-12.51,38.33H356.8l32.94,23.76l-12.51,38.33l32.94-23.76l20.27-14.57
				L463.24,144.62L463.24,144.62L463.24,144.62L463.24,144.62z"/>
			<path id="Shape_00000106855978747059764520000016630634986633226147_" class="st3" d="M574.74,183.1l23.12-5.86l9.66,29.78
				L574.74,183.1z M627.96,144.62h-40.71l-12.51-38.33l-12.51,38.33h-40.71l32.94,23.76l-12.51,38.33l32.94-23.76l20.27-14.57
				L627.96,144.62L627.96,144.62L627.96,144.62L627.96,144.62z"/>
			<path id="Shape_00000139986697511086664510000002315636890944669834_" class="st3" d="M739.47,183.1l23.12-5.86l9.66,29.78
				L739.47,183.1z M792.69,144.62h-40.71l-12.51-38.33l-12.51,38.33h-40.71l32.94,23.76l-12.51,38.33l32.94-23.76l20.27-14.57
				L792.69,144.62L792.69,144.62L792.69,144.62L792.69,144.62z"/>
		</g>
	</g>
</g>
</svg>
