<svg width="427" height="512" viewBox="0 0 427 512" fill="none" xmlns="http://www.w3.org/2000/svg">
<path fill-rule="evenodd" clip-rule="evenodd" d="M193.5 1.14498C145.498 7.26398 102.726 45.157 91.0742 91.888C86.8802 108.709 86.0992 123.435 88.4592 141.166C95.2482 192.165 136.767 235.467 187.554 244.515C197.984 246.374 220.408 246.671 230.148 245.08C254.994 241.022 276.415 230.251 294.904 212.519C318.494 189.894 330.404 165.224 332.935 133.738C336.657 87.432 316.376 45.931 277.196 19.684C253.893 4.07198 223.446 -2.67202 193.5 1.14498ZM234.143 32.887C249.793 36.975 261.686 43.814 274.443 56.061C292.185 73.093 300.548 90.069 303.048 114.124C306.084 143.331 295.563 171.213 273.837 191.536C253.861 210.222 228.356 218.772 201 215.953C177.305 213.511 159.57 204.774 142.998 187.376C130.658 174.42 124.237 163.187 119.866 146.908C116.671 135.009 116.65 111.278 119.824 99.5C127.663 70.414 152.827 43.613 180.842 34.513C196.013 29.586 218.838 28.889 234.143 32.887ZM101.278 248.032C56.4062 252.571 24.9182 284.434 9.98024 340.418C0.582239 375.639 -2.65076 425.828 2.98424 449C4.12124 453.675 7.15624 461.775 9.72924 467C13.7252 475.117 15.7962 477.883 23.9532 486.002C36.9032 498.892 46.3152 504.201 65.2142 509.275L73.5002 511.5H213.5H353.5L362.5 509.156C394.095 500.929 416.151 479.566 424.093 449.5C428.034 434.579 427.707 398.718 423.373 370.5C411.69 294.433 378.418 253.154 324.687 248.063C309.61 246.635 307.777 247.278 284.97 262.001C268.867 272.396 266.021 273.896 253.835 278.417C237.18 284.595 228.865 286.171 213.053 286.147C199.679 286.126 188.524 283.998 173.863 278.67C161.702 274.251 160.553 273.649 143 262.494C119.016 247.253 116.749 246.467 101.278 248.032ZM126.681 287.631C145.546 299.709 153.423 303.603 169.897 308.992C185.368 314.053 197.493 316 213.545 316C229.149 316 240.364 314.254 255.891 309.408C271.548 304.521 281.258 299.835 298.637 288.775C318.141 276.364 316.336 277.109 324.447 278.112C343.736 280.495 358.861 289.993 370.256 306.879C386.504 330.957 395.189 365.345 396.678 411.5C397.188 427.292 397 431.935 395.567 439C392.152 455.826 382.42 468.575 367.626 475.6C353.597 482.263 358.22 482.083 209.416 481.743C83.7322 481.455 75.1312 481.325 69.5002 479.632C54.7672 475.2 42.0682 465.054 36.1682 453C30.9662 442.371 29.7272 433.484 30.4522 412C31.4792 381.543 35.0442 358.84 42.1272 337.632C48.3102 319.118 54.6302 307.893 65.3912 296.313C74.3392 286.684 87.9032 279.91 101.833 278.113C105.5 277.64 108.855 277.196 109.289 277.126C109.722 277.057 117.549 281.784 126.681 287.631Z" fill="#434343"/>
</svg>
